<?xml version="1.0" encoding="UTF-8"?>
<svg viewBox="0 0 436 436" version="1.1"
    xmlns="http://www.w3.org/2000/svg"
    xmlns:xlink="http://www.w3.org/1999/xlink">
    <title>gobackup</title>
    <g stroke="none" stroke-width="1" fill="none" fill-rule="evenodd">
        <g id="Logo" transform="translate(-4.000000, -4.000000)">
            <path d="M105.434783,43.4347826 L339.530435,43.4347826 C373.772089,43.4347826 401.530435,71.1931281 401.530435,105.434783 L401.530435,339.530435 C401.530435,373.772089 373.772089,401.530435 339.530435,401.530435 L105.434783,401.530435 C71.1931281,401.530435 43.4347826,373.772089 43.4347826,339.530435 L43.4347826,105.434783 C43.4347826,71.1931281 71.1931281,43.4347826 105.434783,43.4347826 Z" id="Rectangle" stroke="#000000" stroke-width="10" fill="#F0F0F0"></path>
            <path d="M344.469565,81.1478261 C352.477694,81.1478261 359.727694,84.3937617 364.975662,89.6417294 C370.22363,94.8896972 373.469565,102.139697 373.469565,110.147826 L373.469565,110.147826 L373.469565,301.034783 C373.469565,309.042911 370.22363,316.292911 364.975662,321.540879 C359.727694,326.788847 352.477694,330.034783 344.469565,330.034783 L344.469565,330.034783 L100.495652,330.034783 C92.4875233,330.034783 85.2375233,326.788847 79.9895555,321.540879 C74.7415877,316.292911 71.4956522,309.042911 71.4956522,301.034783 L71.4956522,301.034783 L71.4956522,110.147826 C71.4956522,102.139697 74.7415877,94.8896972 79.9895555,89.6417294 C85.2375233,84.3937617 92.4875233,81.1478261 100.495652,81.1478261 L100.495652,81.1478261 Z" id="Rectangle-Copy-3" stroke="#464646" stroke-width="4" fill="#C3C3C3"></path>
            <path d="M344.469565,110.104348 C352.477694,110.104348 359.727694,113.350283 364.975662,118.598251 C370.22363,123.846219 373.469565,131.096219 373.469565,139.104348 L373.469565,139.104348 L373.469565,329.991304 C373.469565,337.999433 370.22363,345.249433 364.975662,350.497401 C359.727694,355.745369 352.477694,358.991304 344.469565,358.991304 L344.469565,358.991304 L100.495652,358.991304 C92.4875233,358.991304 85.2375233,355.745369 79.9895555,350.497401 C74.7415877,345.249433 71.4956522,337.999433 71.4956522,329.991304 L71.4956522,329.991304 L71.4956522,139.104348 C71.4956522,131.096219 74.7415877,123.846219 79.9895555,118.598251 C85.2375233,113.350283 92.4875233,110.104348 100.495652,110.104348 L100.495652,110.104348 Z" id="Rectangle-Copy-4" stroke="#464646" stroke-width="4" fill="#EFEFEF"></path>
            <path d="M344.469565,139.06087 C352.477694,139.06087 359.727694,142.306805 364.975662,147.554773 C370.22363,152.802741 373.469565,160.052741 373.469565,168.06087 L373.469565,168.06087 L373.469565,358.947826 C373.469565,366.955955 370.22363,374.205955 364.975662,379.453923 C359.727694,384.701891 352.477694,387.947826 344.469565,387.947826 L344.469565,387.947826 L100.495652,387.947826 C92.4875233,387.947826 85.2375233,384.701891 79.9895555,379.453923 C74.7415877,374.205955 71.4956522,366.955955 71.4956522,358.947826 L71.4956522,358.947826 L71.4956522,168.06087 C71.4956522,160.052741 74.7415877,152.802741 79.9895555,147.554773 C85.2375233,142.306805 92.4875233,139.06087 100.495652,139.06087 L100.495652,139.06087 Z" id="Rectangle-Copy" stroke="#464646" stroke-width="4" fill="#FFFFFF"></path>
            <path d="M339.530435,175.843478 C355.27055,175.843478 369.52055,182.223421 379.835521,192.538392 C390.150492,202.853363 396.530435,217.103363 396.530435,232.843478 L396.530435,232.843478 L396.530435,339.530435 C396.530435,355.27055 390.150492,369.52055 379.835521,379.835521 C369.52055,390.150492 355.27055,396.530435 339.530435,396.530435 L339.530435,396.530435 L105.434783,396.530435 C89.6946672,396.530435 75.4446672,390.150492 65.1296961,379.835521 C54.8147249,369.52055 48.4347826,355.27055 48.4347826,339.530435 L48.4347826,339.530435 L48.4347826,232.843478 C48.4347826,217.103363 54.8147249,202.853363 65.1296961,192.538392 C75.4446672,182.223421 89.6946672,175.843478 105.434783,175.843478 L105.434783,175.843478 Z" id="Rectangle-Copy-2" stroke="#000000" stroke-width="10" fill="#303030"></path>
            <path d="M393.217748,283.332779 C394.709185,328.708656 392.414956,357.004081 386.335062,368.219054 C380.255168,379.434027 367.729181,387.495124 348.757101,392.402344 L97.7282609,392.402344 C111.323761,382.041727 124.660343,376.415655 137.738009,375.524128 C227.013165,369.438083 329.740051,378.058695 337.612313,375.524128 C345.484575,372.98956 362.239676,374.114145 370.293956,359.5796 C378.348236,345.045056 380.475567,313.161671 383.196351,300.664609 C385.010207,292.333234 388.350673,286.555957 393.217748,283.332779 Z" id="Path-2" fill="#1F1F1F"></path>
            <path d="M222.965217,238.408696 C242.723356,238.408696 259.119666,251.329037 265.273195,268.994022 C280.90277,270.111561 293.426087,282.79663 293.426087,298.638261 C293.426087,315.205311 279.841136,328.753043 263.228571,328.753043 L263.228571,328.753043 L227.899348,328.752696 L227.899961,296.689812 L246.577251,315.367102 C248.127225,316.917075 250.635944,316.930859 252.202855,315.398011 L253.694357,313.938934 C255.273524,312.394096 255.301354,309.861589 253.756516,308.282421 C253.74627,308.271947 253.735967,308.26153 253.725607,308.25117 L225.712375,280.237938 C224.150278,278.675841 221.617618,278.675841 220.055521,280.237938 L192.042288,308.25117 C190.480191,309.813267 190.480191,312.345927 192.042288,313.908025 C192.052648,313.918385 192.063065,313.928688 192.073539,313.938934 L193.56504,315.398011 C195.131952,316.930859 197.640671,316.917075 199.190644,315.367102 L217.867934,296.689812 L217.867348,328.752696 L182.701863,328.753043 C166.255425,328.753043 152.77635,315.474911 152.508413,299.134356 L152.504348,298.638261 C152.504348,287.776551 158.893795,278.836225 167.603106,273.542609 C167.603106,262.504442 176.666291,253.466087 187.734783,253.466087 C188.481859,253.466087 189.09131,253.701359 189.779406,253.779783 C198.056198,244.62379 209.635848,238.408696 222.965217,238.408696 Z" id="形状" fill-opacity="0.7" fill="#FFFFFF" fill-rule="nonzero"></path>
        </g>
    </g>
</svg>