<?xml version="1.0" encoding="UTF-8"?>
<svg width="436px" height="436px" viewBox="0 0 436 436" version="1.1" xmlns="http://www.w3.org/2000/svg" xmlns:xlink="http://www.w3.org/1999/xlink">
    <!-- Generator: Sketch 44.1 (41455) - http://www.bohemiancoding.com/sketch -->
    <title>Slice</title>
    <desc>Created with Sketch.</desc>
    <defs>
        <rect id="path-1" x="32" y="32" width="371" height="371" rx="62"></rect>
        <rect id="path-2" x="59" y="69" width="317" height="262" rx="31"></rect>
        <rect id="path-3" x="59" y="99" width="317" height="262" rx="31"></rect>
        <rect id="path-4" x="59" y="129" width="317" height="262" rx="31"></rect>
        <rect id="path-5" x="32" y="164" width="371" height="239" rx="62"></rect>
    </defs>
    <g id="Page-1" stroke="none" stroke-width="1" fill="none" fill-rule="evenodd">
        <g id="Rectangle">
            <use fill="#F1F1F1" fill-rule="evenodd" xlink:href="#path-1"></use>
            <rect stroke="#000000" stroke-width="10" x="37" y="37" width="361" height="361" rx="62"></rect>
        </g>
        <g id="Rectangle-Copy-3">
            <use fill="#C4C4C4" fill-rule="evenodd" xlink:href="#path-2"></use>
            <rect stroke="#464646" stroke-width="4" x="61" y="71" width="313" height="258" rx="31"></rect>
        </g>
        <g id="Rectangle-Copy-4">
            <use fill="#EFEFEF" fill-rule="evenodd" xlink:href="#path-3"></use>
            <rect stroke="#464646" stroke-width="4" x="61" y="101" width="313" height="258" rx="31"></rect>
        </g>
        <g id="Rectangle-Copy">
            <use fill="#FFFFFF" fill-rule="evenodd" xlink:href="#path-4"></use>
            <rect stroke="#464646" stroke-width="4" x="61" y="131" width="313" height="258" rx="31"></rect>
        </g>
        <g id="Rectangle-Copy-2">
            <use fill="#303030" fill-rule="evenodd" xlink:href="#path-5"></use>
            <rect stroke="#000000" stroke-width="10" x="37" y="169" width="361" height="229" rx="62"></rect>
        </g>
        <path d="M288.236735,280.973333 C288.236735,316.76 258.995918,345.946667 223.142857,345.946667 C187.289796,345.946667 158.195918,316.76 158.195918,280.973333 L158.195918,275.106667 L148.497959,284.786667 C148.204082,285.08 147.763265,285.226667 147.469388,285.226667 C147.17551,285.226667 146.734694,285.08 146.440816,284.786667 C145.853061,284.2 145.853061,283.32 146.440816,282.733333 L158.636735,270.56 C159.22449,269.973333 160.106122,269.973333 160.693878,270.56 L172.889796,282.733333 C173.477551,283.32 173.477551,284.2 172.889796,284.786667 C172.595918,285.08 172.155102,285.226667 171.861224,285.226667 C171.567347,285.226667 171.126531,285.08 170.832653,284.786667 L161.134694,275.106667 L161.134694,280.973333 C161.134694,315.146667 189.053061,343.013333 223.289796,343.013333 C257.526531,343.013333 285.444898,315.146667 285.444898,280.973333 C285.444898,246.8 257.379592,218.933333 223.142857,218.933333 C206.244898,218.933333 190.522449,225.533333 178.620408,237.706667 C178.032653,238.293333 177.15102,238.293333 176.563265,237.706667 C175.97551,237.12 175.97551,236.24 176.563265,235.653333 C188.906122,223.04 205.510204,216 223.142857,216 C258.995918,216 288.236735,245.186667 288.236735,280.973333 Z M241.216327,263.813333 L241.216327,275.253333 L249.297959,275.253333 C250.179592,275.253333 250.767347,275.84 250.767347,276.72 L250.767347,310.453333 C250.767347,311.333333 250.179592,311.92 249.297959,311.92 L196.987755,311.92 C196.106122,311.92 195.518367,311.333333 195.518367,310.453333 L195.518367,276.72 C195.518367,275.84 196.106122,275.253333 196.987755,275.253333 L205.069388,275.253333 L205.069388,263.813333 C205.069388,253.84 213.15102,245.773333 223.142857,245.773333 C233.134694,245.92 241.216327,253.986667 241.216327,263.813333 Z M208.155102,275.4 L238.277551,275.4 L238.277551,263.96 C238.277551,255.6 231.518367,248.853333 223.142857,248.853333 C214.767347,248.853333 208.008163,255.6 208.008163,263.96 L208.008163,275.4 L208.155102,275.4 Z M247.828571,278.333333 L198.457143,278.333333 L198.457143,309.133333 L247.828571,309.133333 L247.828571,278.333333 Z" id="Shape" stroke="#FFFFFF" stroke-width="3" fill="#FFFFFF" fill-rule="nonzero"></path>
        <path d="M392.639648,280.542969 C394.838867,327.432943 392.806966,356.672526 386.543945,368.261719 C380.280924,379.850911 367.046224,388.18099 346.839844,393.251953 L88.25,393.251953 C102.254997,382.545625 115.993278,376.731823 129.464844,375.810547 C221.428973,369.521424 327.25,378.429687 335.359375,375.810547 C343.46875,373.191406 360.728516,374.353516 369.025391,359.333984 C377.322266,344.314453 379.513672,311.367188 382.316406,298.453125 C384.184896,289.84375 387.625977,283.873698 392.639648,280.542969 Z" id="Path-2" fill="#1F1F1F"></path>
    </g>
</svg>